<?xml version="1.0" encoding="UTF-8" standalone="no"?>
<svg
   xmlns:dc="http://purl.org/dc/elements/1.1/"
   xmlns:cc="http://creativecommons.org/ns#"
   xmlns:rdf="http://www.w3.org/1999/02/22-rdf-syntax-ns#"
   xmlns:svg="http://www.w3.org/2000/svg"
   xmlns="http://www.w3.org/2000/svg"
   xmlns:sodipodi="http://sodipodi.sourceforge.net/DTD/sodipodi-0.dtd"
   xmlns:inkscape="http://www.inkscape.org/namespaces/inkscape"
   width="16.73914"
   height="17.174355"
   viewBox="0 0 16.739139 17.174355"
   version="1.1"
   id="SVGRoot"
   sodipodi:docname="search 2.svg"
   inkscape:version="0.92.5 (2060ec1f9f, 2020-04-08)">
  <sodipodi:namedview
     pagecolor="#ffffff"
     bordercolor="#666666"
     borderopacity="1"
     objecttolerance="10"
     gridtolerance="10"
     guidetolerance="10"
     inkscape:pageopacity="0"
     inkscape:pageshadow="2"
     inkscape:window-width="1366"
     inkscape:window-height="705"
     id="namedview6"
     showgrid="false"
     inkscape:zoom="13.741419"
     inkscape:cx="8.3695698"
     inkscape:cy="8.5871773"
     inkscape:window-x="-8"
     inkscape:window-y="-8"
     inkscape:window-maximized="1"
     inkscape:current-layer="SVGRoot" />
  <defs
     id="defs815" />
  <metadata
     id="metadata818">
    <rdf:RDF>
      <cc:Work
         rdf:about="">
        <dc:format>image/svg+xml</dc:format>
        <dc:type
           rdf:resource="http://purl.org/dc/dcmitype/StillImage" />
        <dc:title />
      </cc:Work>
    </rdf:RDF>
  </metadata>
  <path
     id="path4517"
     d="M 7.1359276,8.2877854e-4 A 7.0280161,7.0280161 0 0 0 0.00116204,6.8992663 7.0280161,7.0280161 0 0 0 6.8820214,14.053564 a 7.0280161,7.0280161 0 0 0 3.9628906,-1.125 l 3.962891,3.96289 c 0.3772,0.3772 0.986081,0.3772 1.363281,0 l 0.285156,-0.285156 c 0.3772,-0.3772 0.3772,-0.986081 0,-1.363281 L 12.563662,11.350438 A 7.0280161,7.0280161 0 0 0 14.05585,7.1941882 7.0280161,7.0280161 0 0 0 7.2160058,8.2877854e-4 Z M 7.1163966,1.2742663 l 0.066406,0.00195 a 5.7535052,5.7535052 0 0 1 5.5976564,5.8886718 5.7535052,5.7535052 0 0 1 -1.125,3.2773429 5.7535052,5.7535052 0 0 1 -0.365235,0.445313 5.7535052,5.7535052 0 0 1 -0.402343,0.402344 5.7535052,5.7535052 0 0 1 -0.0039,0.0039 5.7535052,5.7535052 0 0 1 -0.02539,0.02148 5.7535052,5.7535052 0 0 1 -0.419929,0.341811 5.7535052,5.7535052 0 0 1 -0.523438,0.341797 5.7535052,5.7535052 0 0 1 -3.007812,0.78125 5.7535052,5.7535052 0 0 1 -5.6308594,-5.8574222 5.7535052,5.7535052 0 0 1 5.839844,-5.6484375 z"
     style="fill:#fbf9fb;fill-rule:evenodd;fill-opacity:0.98431373" />
</svg>
