<?xml version="1.0" encoding="UTF-8" standalone="no"?>
<svg
   xmlns:dc="http://purl.org/dc/elements/1.1/"
   xmlns:cc="http://creativecommons.org/ns#"
   xmlns:rdf="http://www.w3.org/1999/02/22-rdf-syntax-ns#"
   xmlns:svg="http://www.w3.org/2000/svg"
   xmlns="http://www.w3.org/2000/svg"
   xmlns:sodipodi="http://sodipodi.sourceforge.net/DTD/sodipodi-0.dtd"
   xmlns:inkscape="http://www.inkscape.org/namespaces/inkscape"
   id="SVGRoot"
   version="1.1"
   viewBox="0 0 17.136451 17.165749"
   height="17.165749"
   width="17.136452"
   sodipodi:docname="search3dg.svg"
   inkscape:version="0.92.5 (2060ec1f9f, 2020-04-08)">
  <sodipodi:namedview
     pagecolor="#ffffff"
     bordercolor="#666666"
     borderopacity="1"
     objecttolerance="10"
     gridtolerance="10"
     guidetolerance="10"
     inkscape:pageopacity="0"
     inkscape:pageshadow="2"
     inkscape:window-width="1366"
     inkscape:window-height="705"
     id="namedview6"
     showgrid="false"
     inkscape:zoom="13.748308"
     inkscape:cx="-3.2514104"
     inkscape:cy="8.5828743"
     inkscape:window-x="-8"
     inkscape:window-y="-8"
     inkscape:window-maximized="1"
     inkscape:current-layer="SVGRoot" />
  <defs
     id="defs815" />
  <metadata
     id="metadata818">
    <rdf:RDF>
      <cc:Work
         rdf:about="">
        <dc:format>image/svg+xml</dc:format>
        <dc:type
           rdf:resource="http://purl.org/dc/dcmitype/StillImage" />
        <dc:title />
      </cc:Work>
    </rdf:RDF>
  </metadata>
  <path
     id="rect826"
     d="M 7.3867192,5.0585403e-7 A 7.3864279,7.3864279 0 0 0 5.0586611e-7,7.3867193 7.3864279,7.3864279 0 0 0 7.3867192,14.773438 7.3864279,7.3864279 0 0 0 11.560547,13.482422 l 3.365235,3.365234 c 0.463634,0.463635 1.259094,0.414734 1.783203,-0.109375 0.524109,-0.524109 0.57301,-1.319568 0.109375,-1.783203 L 13.451172,11.587891 A 7.3864279,7.3864279 0 0 0 14.773438,7.3867193 7.3864279,7.3864279 0 0 0 7.3867192,5.0585403e-7 Z m 0,2.36523439414597 a 5.2855954,5.0213156 0 0 1 5.2851558,5.0214844 5.2855954,5.0213156 0 0 1 -0.791015,2.6308587 5.2855954,5.0213156 0 0 1 -0.289063,0.402344 5.2855954,5.0213156 0 0 1 -0.0098,0.01172 5.2855954,5.0213156 0 0 1 -0.0098,0.0098 5.2855954,5.0213156 0 0 1 -0.324219,0.363282 5.2855954,5.0213156 0 0 1 -0.0078,0.0098 5.2855954,5.0213156 0 0 1 -0.0098,0.0078 5.2855954,5.0213156 0 0 1 -0.341797,0.316406 5.2855954,5.0213156 0 0 1 -0.05469,0.04687 5.2855954,5.0213156 0 0 1 -0.357422,0.267578 5.2855954,5.0213156 0 0 1 -0.06055,0.04102 5.2855954,5.0213156 0 0 1 -0.353515,0.214844 5.2855954,5.0213156 0 0 1 -0.1777349,0.09766 A 5.2855954,5.0213156 0 0 1 7.3867192,12.408203 5.2855954,5.0213156 0 0 1 2.101563,7.3867193 5.2855954,5.0213156 0 0 1 7.3867192,2.3652349 Z"
     style="opacity:1;fill:#c4c1c1;fill-opacity:1;fill-rule:nonzero;stroke:#000000;stroke-width:0;stroke-linecap:round;stroke-linejoin:bevel;stroke-miterlimit:4;stroke-dasharray:none;stroke-dashoffset:0;stroke-opacity:1;paint-order:fill markers stroke" />
</svg>
