<?xml version="1.0" encoding="UTF-8" standalone="no"?>
<svg
   xmlns:dc="http://purl.org/dc/elements/1.1/"
   xmlns:cc="http://creativecommons.org/ns#"
   xmlns:rdf="http://www.w3.org/1999/02/22-rdf-syntax-ns#"
   xmlns:svg="http://www.w3.org/2000/svg"
   xmlns="http://www.w3.org/2000/svg"
   id="SVGRoot"
   version="1.1"
   viewBox="0 0 14.210939 14.26172"
   height="14.26172"
   width="14.210939">
  <defs
     id="defs824" />
  <metadata
     id="metadata827">
    <rdf:RDF>
      <cc:Work
         rdf:about="">
        <dc:format>image/svg+xml</dc:format>
        <dc:type
           rdf:resource="http://purl.org/dc/dcmitype/StillImage" />
        <dc:title></dc:title>
      </cc:Work>
    </rdf:RDF>
  </metadata>
  <g
     transform="translate(-0.1850602,-2.6054688)"
     id="layer1">
    <g
       style="fill:#fbf9fb;fill-opacity:0.98823529"
       transform="translate(-1.4086893)"
       id="g1430">
      <path
         style="opacity:1;fill:#fbf9fb;fill-opacity:0.98823529;fill-rule:nonzero;stroke:#000000;stroke-width:0;stroke-linecap:round;stroke-linejoin:bevel;stroke-miterlimit:4;stroke-dasharray:none;stroke-dashoffset:0;stroke-opacity:1;paint-order:fill markers stroke"
         d="M 1.59375,6.90625 V 8.4589844 14.875 15.314453 c 1e-7,0.859946 0.692788,1.552735 1.5527344,1.552735 H 14.251953 c 0.859947,0 1.552734,-0.692789 1.552735,-1.552735 V 14.875 8.4589844 6.90625 h -1.552735 -0.173828 v 0.9296875 h 0.666016 v 1.2636719 5.2167966 0.357422 c 0,0.699423 -0.588741,1.263672 -1.320313,1.263672 H 3.9746094 c -0.7315717,0 -1.3203125,-0.564249 -1.3203125,-1.263672 V 14.316406 9.0996094 7.8359375 H 3.3203125 V 6.90625 H 3.1464844 Z m 2.5234375,0 V 7.8359375 H 5.3125 V 6.90625 Z m 1.9921875,0 v 0.9296875 h 5.179687 V 6.90625 Z m 5.976563,0 V 7.8359375 H 13.28125 V 6.90625 Z"
         id="rect1380" />
      <path
         style="fill:#fbf9fb;fill-rule:evenodd;stroke-width:1.00000012;fill-opacity:0.98823529"
         d="m 8.6992193,2.6054688 a 4.5820312,3.4368095 0 0 0 -4.582031,3.4374999 4.5820312,3.4368095 0 0 0 0.01758,0.265625 h -0.01758 v 3.8847653 h 1.195312 V 8.3515625 6.3085937 h 0.01563 a 3.3867188,2.3079033 0 0 1 -0.01563,-0.2070313 3.3867188,2.3079033 0 0 1 3.386719,-2.3085936 3.3867188,2.3079033 0 0 1 3.3867187,2.3085936 3.3867188,2.3079033 0 0 1 -0.01563,0.2070313 h 0.01563 V 8.3496094 10.226562 H 13.28125 V 6.3417968 H 13.25586 A 4.5820312,3.4368095 0 0 0 13.28125,6.0429687 4.5820312,3.4368095 0 0 0 8.6992193,2.6054688 Z"
         id="path1393" />
    </g>
  </g>
</svg>
