<?xml version="1.0" encoding="UTF-8" standalone="no"?>
<svg
   xmlns:dc="http://purl.org/dc/elements/1.1/"
   xmlns:cc="http://creativecommons.org/ns#"
   xmlns:rdf="http://www.w3.org/1999/02/22-rdf-syntax-ns#"
   xmlns:svg="http://www.w3.org/2000/svg"
   xmlns="http://www.w3.org/2000/svg"
   xmlns:xlink="http://www.w3.org/1999/xlink"
   id="svg1377"
   version="1.1"
   viewBox="0 0 32.279167 28.045831"
   height="106"
   width="122">
  <defs
     id="defs1371">
    <linearGradient
       id="linearGradient1001">
      <stop
         id="stop997"
         offset="0"
         style="stop-color:#232323;stop-opacity:1" />
      <stop
         id="stop999"
         offset="1"
         style="stop-color:#333333;stop-opacity:0.96470588" />
    </linearGradient>
    <linearGradient
       gradientTransform="matrix(1.7014046,0,0,1.7924528,-208.27202,-54.901059)"
       gradientUnits="userSpaceOnUse"
       y2="140.08504"
       x2="74.42775"
       y1="280.72983"
       x1="126.7516"
       id="linearGradient962"
       xlink:href="#linearGradient1001" />
    <linearGradient
       gradientTransform="translate(0,73.367831)"
       gradientUnits="userSpaceOnUse"
       y2="150.29613"
       x2="117.76031"
       y1="266.78799"
       x1="81.247925"
       id="linearGradient1003"
       xlink:href="#linearGradient1001" />
    <linearGradient
       y2="150.29613"
       x2="117.76031"
       y1="266.78799"
       x1="81.247925"
       gradientTransform="matrix(1.99033,0,0,1.7924528,-37.083372,-100.44652)"
       gradientUnits="userSpaceOnUse"
       id="linearGradient1052"
       xlink:href="#linearGradient1001" />
  </defs>
  <metadata
     id="metadata1374">
    <rdf:RDF>
      <cc:Work
         rdf:about="">
        <dc:format>image/svg+xml</dc:format>
        <dc:type
           rdf:resource="http://purl.org/dc/dcmitype/StillImage" />
        <dc:title></dc:title>
      </cc:Work>
    </rdf:RDF>
  </metadata>
  <g
     transform="translate(-4.570917,-262.66837)"
     id="layer1">
    <g
       transform="rotate(-8.7711459,-34.885717,332.22007)"
       id="g1942" />
    <g
       style="stroke-width:3.30113959"
       transform="matrix(0.30292568,0,0,0.30292568,4.0499843,202.03999)"
       id="g2104">
      <g
         id="g871">
        <g
           style="stroke-width:5.76489687"
           transform="matrix(0.58774969,0,0,0.55789472,1.7451065,128.87638)"
           id="g1020">
          <g
             id="g1204">
            <g
               id="g1132"
               transform="matrix(0.90036833,0,0,0.78015436,213.38271,58.991606)"
               style="stroke-width:6.87845993" />
            <g
               id="g910">
              <g
                 style="stroke-width:6.87845993"
                 transform="matrix(-0.90036833,0,0,0.78015436,210.77864,44.364972)"
                 id="g926">
                <g
                   style="stroke-width:6.87845993"
                   transform="translate(267.98647,8.6529842)"
                   id="g1112">
                  <path
                     id="rect918"
                     d="m -55.003692,123.8228 c 11.727054,0 21.167967,12.54059 21.167967,28.11802 v 109.71674 c 0,15.57743 -9.440913,28.11802 -21.167967,28.11802 h -32.432533 v -7.20784 H -56.8896 c 9.020794,0 16.283051,-8.96054 16.283051,-20.09102 V 151.12166 c 0,-11.13048 -7.262257,-20.09102 -16.283051,-20.09102 h -30.546625 v -7.20784 z"
                     style="opacity:1;fill:#dddddd;fill-opacity:1;fill-rule:nonzero;stroke:none;stroke-width:15.57971382;stroke-linecap:round;stroke-linejoin:bevel;stroke-miterlimit:4;stroke-dasharray:none;stroke-dashoffset:0;stroke-opacity:1;paint-order:fill markers stroke" />
                </g>
              </g>
              <path
                 style="opacity:1;fill:#dddddd;fill-opacity:1;fill-rule:nonzero;stroke:none;stroke-width:13.05749512;stroke-linecap:round;stroke-linejoin:bevel;stroke-miterlimit:4;stroke-dasharray:none;stroke-dashoffset:0;stroke-opacity:1;paint-order:fill markers stroke"
                 d="m 132.99488,148.14897 v 5.62323 h 27.50321 c 8.12203,0 14.66074,6.9906 14.66074,15.67409 v 86.87414 c 0,8.68349 -6.53871,15.6741 -14.66074,15.6741 h -27.50321 v 5.62323 h 29.20121 c 10.55867,-10e-6 19.05897,-9.7836 19.05897,-21.9364 v -85.59599 c 0,-12.15281 -8.5003,-21.9364 -19.05897,-21.9364 z"
                 id="path1128" />
              <rect
                 transform="scale(-1,1)"
                 style="opacity:1;fill:#1c25ff;fill-opacity:1;fill-rule:nonzero;stroke:none;stroke-width:13.05749226;stroke-linecap:round;stroke-linejoin:bevel;stroke-miterlimit:4;stroke-dasharray:none;stroke-dashoffset:0;stroke-opacity:1;paint-order:fill markers stroke"
                 id="rect871"
                 width="19.370846"
                 height="5.4419379"
                 x="-51.600498"
                 y="261.92047"
                 rx="3.2615709"
                 ry="9.9632654" />
              <rect
                 ry="9.9632654"
                 rx="3.2615709"
                 y="261.92047"
                 x="-151.76344"
                 height="5.4419379"
                 width="19.370846"
                 id="rect1136"
                 style="opacity:1;fill:#1c25ff;fill-opacity:1;fill-rule:nonzero;stroke:none;stroke-width:13.05749226;stroke-linecap:round;stroke-linejoin:bevel;stroke-miterlimit:4;stroke-dasharray:none;stroke-dashoffset:0;stroke-opacity:1;paint-order:fill markers stroke"
                 transform="scale(-1,1)" />
              <rect
                 style="opacity:1;fill:#1c25ff;fill-opacity:1;fill-rule:nonzero;stroke:none;stroke-width:13.0574913;stroke-linecap:round;stroke-linejoin:bevel;stroke-miterlimit:4;stroke-dasharray:none;stroke-dashoffset:0;stroke-opacity:1;paint-order:fill markers stroke"
                 id="rect1182"
                 width="27.100271"
                 height="6.2956443"
                 x="-105.54668"
                 y="276.94006"
                 rx="4.143229"
                 ry="9.9632654"
                 transform="scale(-1,1)" />
              <path
                 id="path1081"
                 d="m 57.250992,147.10951 c -0.358899,-0.023 -0.72051,-0.0281 -1.084569,-0.0281 h -7.167155"
                 style="opacity:1;fill:#008000;fill-opacity:1;fill-rule:nonzero;stroke:none;stroke-width:13.05749416;stroke-linecap:round;stroke-linejoin:bevel;stroke-miterlimit:4;stroke-dasharray:none;stroke-dashoffset:0;stroke-opacity:1;paint-order:fill markers stroke" />
              <path
                 id="rect910"
                 d="m 49.254109,276.54069 h 6.912314 c 0.501388,0 0.998135,-0.0222 1.489551,-0.0561"
                 style="opacity:1;fill:#008000;fill-opacity:1;fill-rule:nonzero;stroke:none;stroke-width:13.05749416;stroke-linecap:round;stroke-linejoin:bevel;stroke-miterlimit:4;stroke-dasharray:none;stroke-dashoffset:0;stroke-opacity:1;paint-order:fill markers stroke" />
              <path
                 style="opacity:1;fill:#dddddd;fill-opacity:1;fill-rule:nonzero;stroke:none;stroke-width:13.05749226;stroke-linecap:round;stroke-linejoin:bevel;stroke-miterlimit:4;stroke-dasharray:none;stroke-dashoffset:0;stroke-opacity:1;paint-order:fill markers stroke"
                 d="m 66.199941,127.74163 c -10.558663,0 -19.058972,9.7835 -19.058972,21.93632 v 122.07813 c 0,12.15281 8.500309,21.9366 19.058972,21.9366 h 51.593229 c 10.55866,0 19.05896,-9.78379 19.05896,-21.9366 V 149.67795 c 0,-12.15282 -8.5003,-21.93632 -19.05896,-21.93632 z m 3.413199,7.20721 h 44.76682 c 8.12204,0 14.66074,6.99042 14.66074,15.67397 v 120.1884 c 0,8.68355 -6.5387,15.67425 -14.66074,15.67425 H 69.61314 c -8.122044,0 -14.660734,-6.9907 -14.660734,-15.67425 v -120.1884 c 0,-8.68355 6.53869,-15.67397 14.660734,-15.67397 z"
                 id="path1076" />
              <ellipse
                 ry="4.5794258"
                 rx="4.2883782"
                 cy="164.97681"
                 cx="18.274702"
                 id="path1114"
                 style="fill:#1c25ff;fill-opacity:1;fill-rule:evenodd;stroke-width:8.79317284" />
              <ellipse
                 style="fill:#1c25ff;fill-opacity:1;fill-rule:evenodd;stroke-width:8.79317284"
                 id="ellipse1184"
                 cx="67.661186"
                 cy="147.42873"
                 rx="5.8538685"
                 ry="6.2511644" />
              <ellipse
                 style="fill:#1c25ff;fill-opacity:1;fill-rule:evenodd;stroke-width:8.79317284"
                 id="ellipse884"
                 cx="163.73956"
                 cy="164.97681"
                 rx="4.2883782"
                 ry="4.5794258" />
            </g>
          </g>
        </g>
      </g>
    </g>
  </g>
</svg>
