<?xml version="1.0" encoding="UTF-8" standalone="no"?>
<svg
   xmlns:dc="http://purl.org/dc/elements/1.1/"
   xmlns:cc="http://creativecommons.org/ns#"
   xmlns:rdf="http://www.w3.org/1999/02/22-rdf-syntax-ns#"
   xmlns:svg="http://www.w3.org/2000/svg"
   xmlns="http://www.w3.org/2000/svg"
   xmlns:xlink="http://www.w3.org/1999/xlink"
   xmlns:sodipodi="http://sodipodi.sourceforge.net/DTD/sodipodi-0.dtd"
   xmlns:inkscape="http://www.inkscape.org/namespaces/inkscape"
   width="12.010143mm"
   height="12.010103mm"
   viewBox="0 0 12.010143 12.010103"
   version="1.1"
   id="svg8"
   sodipodi:docname="Techlipse0.svg"
   inkscape:version="0.92.5 (2060ec1f9f, 2020-04-08)">
  <sodipodi:namedview
     pagecolor="#ffffff"
     bordercolor="#666666"
     borderopacity="1"
     objecttolerance="10"
     gridtolerance="10"
     guidetolerance="10"
     inkscape:pageopacity="0"
     inkscape:pageshadow="2"
     inkscape:window-width="1366"
     inkscape:window-height="705"
     id="namedview34"
     showgrid="false"
     inkscape:pagecheckerboard="true"
     showguides="true"
     inkscape:guide-bbox="true"
     inkscape:snap-global="false"
     inkscape:snap-bbox="true"
     inkscape:snap-bbox-edge-midpoints="true"
     fit-margin-left="1e-05"
     fit-margin-right="1e-05"
     fit-margin-bottom="1e-05"
     fit-margin-top="1e-05"
     inkscape:zoom="2.477723"
     inkscape:cx="162.64934"
     inkscape:cy="31.80142"
     inkscape:window-x="-8"
     inkscape:window-y="-8"
     inkscape:window-maximized="1"
     inkscape:current-layer="g896">
    <sodipodi:guide
       position="43.581149,13.219763"
       orientation="0,1"
       id="guide843"
       inkscape:locked="false" />
  </sodipodi:namedview>
  <defs
     id="defs2">
    <linearGradient
       id="linearGradient1128">
      <stop
         style="stop-color:#3f3b37;stop-opacity:1;"
         offset="0"
         id="stop1124" />
      <stop
         style="stop-color:#3f3b37;stop-opacity:0;"
         offset="1"
         id="stop1126" />
    </linearGradient>
    <linearGradient
       xlink:href="#linearGradient1128"
       id="linearGradient1130"
       x1="32.653633"
       y1="279.80695"
       x2="84.321251"
       y2="279.80695"
       gradientUnits="userSpaceOnUse" />
  </defs>
  <metadata
     id="metadata5">
    <rdf:RDF>
      <cc:Work
         rdf:about="">
        <dc:format>image/svg+xml</dc:format>
        <dc:type
           rdf:resource="http://purl.org/dc/dcmitype/StillImage" />
        <dc:title></dc:title>
      </cc:Work>
    </rdf:RDF>
  </metadata>
  <flowRoot
     transform="matrix(0.26458333,0,0,0.26458333,-10.319224,-275.7049)"
     style="font-style:normal;font-weight:normal;font-size:40px;line-height:1.25;font-family:sans-serif;letter-spacing:0px;word-spacing:0px;fill:#000000;fill-opacity:1;stroke:none"
     id="flowRoot893"
     xml:space="preserve"><flowRegion
       id="flowRegion895"><rect
         y="427.04321"
         x="-420.47049"
         height="278.68835"
         width="322.81934"
         id="rect897" /></flowRegion><flowPara
       id="flowPara899" /></flowRoot>  <flowRoot
     transform="matrix(0.26458333,0,0,0.26458333,-10.319224,-275.7049)"
     style="font-style:normal;font-weight:normal;font-size:40px;line-height:1.25;font-family:sans-serif;letter-spacing:0px;word-spacing:0px;fill:#000000;fill-opacity:1;stroke:none"
     id="flowRoot926"
     xml:space="preserve"><flowRegion
       id="flowRegion928"><rect
         y="717.80524"
         x="152.88048"
         height="97.382774"
         width="116.75462"
         id="rect930" /></flowRegion><flowPara
       id="flowPara932" /></flowRoot>  <flowRoot
     xml:space="preserve"
     id="flowRoot829"
     style="font-style:normal;font-weight:normal;font-size:40px;line-height:1.25;font-family:sans-serif;letter-spacing:0px;word-spacing:0px;fill:#000000;fill-opacity:1;stroke:none;stroke-width:0.26458332"
     transform="matrix(0.26458334,0,0,0.26458334,-6.6412301,-9.7463365)"><flowRegion
       id="flowRegion831"><rect
         id="rect833"
         width="110.19894"
         height="43.542019"
         x="79.020699"
         y="112.06323" /></flowRegion><flowPara
       id="flowPara835">LlllL</flowPara></flowRoot>  <g
     id="g859"
     transform="translate(-6.7834584,-8.4472875)">
    <g
       id="g896">
      <path
         inkscape:connector-curvature="0"
         style="fill:#000000;fill-opacity:1;fill-rule:evenodd;stroke-width:0.26458332"
         d="M 12.788501,8.4472975 A 6.0050603,6.0050397 0 0 0 9.4193225,9.4883938 H 16.166633 A 6.0050603,6.0050397 0 0 0 12.788501,8.4472975 Z M 9.2561916,10.477428 c -0.2451625,0 -0.4425405,0.191396 -0.4425405,0.429127 v 7.091521 c 0,0.237736 0.197378,0.429128 0.4425405,0.429128 h 7.0646674 c 0.245167,0 0.442545,-0.191392 0.442545,-0.429128 v -7.091521 c 0,-0.237731 -0.197378,-0.429127 -0.442545,-0.429127 z m -1.4315839,0.596813 a 6.0050603,6.0050397 0 0 0 -1.0411393,3.378075 6.0050603,6.0050397 0 0 0 1.0411393,3.369265 z m 9.9278353,0.0089 v 6.747248 a 6.0050603,6.0050397 0 0 0 1.041148,-3.378079 6.0050603,6.0050397 0 0 0 -1.041148,-3.369169 z m -4.963894,5.179603 a 0.71940927,0.71940676 0 0 1 0.719372,0.719409 0.71940927,0.71940676 0 0 1 -0.719372,0.719419 0.71940927,0.71940676 0 0 1 -0.719414,-0.719419 0.71940927,0.71940676 0 0 1 0.719414,-0.719409 z m -3.3781317,3.153492 a 6.0050603,6.0050397 0 0 0 3.3780837,1.041144 6.0050603,6.0050397 0 0 0 3.369232,-1.041144 z"
         id="path1079" />
      <g
         transform="translate(1.2004716,-1.299139)"
         id="text864"
         style="font-style:normal;font-variant:normal;font-weight:normal;font-stretch:normal;font-size:13.90681839px;line-height:1.25;font-family:sans-serif;-inkscape-font-specification:Ebrima;letter-spacing:0.38364583px;word-spacing:0px;fill:#fbf9fb;fill-opacity:0.98823529;stroke:none;stroke-width:0.01852197"
         aria-label="TECHLIPSE" />
    </g>
  </g>
</svg>
